<svg width="65" height="65" viewBox="0 0 65 65" fill="none" xmlns="http://www.w3.org/2000/svg">
<path d="M64.3511 24.6997L52.8257 27.7472L48.6347 42.4177L40.9512 47.4496L53.2448 44.1186L64.3511 24.6997Z" fill="#127FC5"/>
<path d="M0.650898 24.6997L12.1762 27.7472L16.3672 42.4177L24.0508 47.4496L11.7571 44.1186L0.650898 24.6997Z" fill="#96BB7C"/>
<circle cx="32.1773" cy="8.77496" r="8.77496" fill="#061625"/>
<path d="M8.45117 9.1001L31.2011 22.091V49.3999L17.2507 41.9266L8.45117 9.1001Z" fill="#EF3B3F"/>
<path d="M56.5508 9.1001L33.8009 22.091V49.3999L47.7513 41.9266L56.5508 9.1001Z" fill="#FCAB27"/>
<path fill-rule="evenodd" clip-rule="evenodd" d="M65.0001 64.8372C57.2664 60.1482 45.6375 57.1653 32.6335 57.1653C19.479 57.1653 7.73167 60.2176 0 65.0007C5.90815 57.2995 18.2701 51.9995 32.5634 51.9995C46.7553 51.9995 59.0432 57.2246 65.0001 64.8372Z" fill="#0A1526"/>
</svg>
