<!DOCTYPE svg PUBLIC "-//W3C//DTD SVG 1.1//EN" "http://www.w3.org/Graphics/SVG/1.1/DTD/svg11.dtd">
<svg xmlns="http://www.w3.org/2000/svg" viewBox="0 0 500 500">
<path fill="#479a73" d="M232.5 23.044c-11.882 1.564-23.622 3.878-32.5 6.405-16.617 4.729-19.949 5.824-19.573 6.434.21.339-.72.683-2.066.764-3.533.212-31.301 14.034-41.861 20.838C23.771 130.109-3.414 281.167 77.29 386.5c7.937 10.358 22.1 25.5 23.853 25.5.655 0 .938.252.63.56-1.153 1.154 15.079 14.876 27.986 23.658 61.161 41.616 133.011 51.552 203.197 28.102 10.307-3.444 33.266-14.239 42.044-19.769 7.814-4.923 15.481-9.962 16-10.516.275-.294 1.235-.985 2.133-1.535 8.767-5.371 33.091-28.686 40.176-38.511 2.573-3.569 5.469-7.58 6.435-8.914.966-1.333 2.502-3.133 3.415-4 2.363-2.244 14.411-22.456 20.521-34.426 22.904-44.87 28.138-103.423 14.198-158.813-1.682-6.683-3.444-12.868-3.915-13.744-.472-.876-1.771-4.17-2.888-7.32-1.117-3.15-2.473-6.525-3.014-7.5-.541-.975-2.556-5.147-4.477-9.272-6.031-12.95-19.218-34.392-24.996-40.644-.598-.648-2.663-3.107-4.588-5.465-8.196-10.04-29.508-30.195-37.838-35.783-2.014-1.351-3.887-2.745-4.162-3.098-.275-.353-2.525-2.01-5-3.682-27.614-18.657-58.965-31.188-92.387-36.929-10.811-1.857-51.548-2.745-62.113-1.355m-1.959 17.582C108.72 57.583 26.632 174.644 52.512 294.5c24.459 113.272 136.096 185.597 250.014 161.974 32.1-6.657 66.869-23.464 90.618-43.805 4.204-3.601 7.954-6.237 8.333-5.858.38.379.564.239.41-.311-.153-.55 3.129-4.375 7.294-8.5 51.226-50.733 72.215-128.248 54.222-200.245-20.083-80.36-88.548-143.062-170.699-156.332-14.517-2.345-47.963-2.774-62.163-.797m4.649 11.958c-36.12 4.374-73.059 19.874-100.15 42.025-20.648 16.882-30.37 28.148-48.664 56.391-7.692 11.874-18.736 41.156-22.254 59C35.589 354.726 165.357 478.102 308.5 442.34c67.271-16.807 123.897-72.494 142.074-139.72 27.565-101.948-28.882-207.668-128.68-241.006-28.74-9.601-57.369-12.582-86.704-9.03m-.17 15.168c-11.366 5.71-10.948 26.716.643 32.327 10.523 5.094 21.608-1.104 22.995-12.858 1.836-15.549-10.772-25.934-23.638-19.469m39.451 6.927c-3.019 9.278-9.152 20.399-11.614 21.058-3.252.871-4.11 13.263-.918 13.263 1.53 0 2.08-.946 2.612-4.491.587-3.917.947-4.433 2.811-4.04 1.176.248 6.335.988 11.465 1.644l9.327 1.192-.327 4.598c-.287 4.04-.071 4.633 1.784 4.898 1.745.249 2.219-.356 2.739-3.5 1.231-7.448.844-10.301-1.395-10.301-1.756 0-1.966-.46-1.485-3.25.819-4.753 3.53-24.904 3.53-26.244 0-.686-3.183-1.523-7.931-2.086l-7.932-.939-2.666 8.198m-37.451-3.395c-7.441 3.765-6.586 21.304 1.236 25.349 6.185 3.198 13.949-.878 15.29-8.028 2.449-13.055-6.474-22.407-16.526-17.321m42.096 4.169c-.623 2.473-3.082 8.287-5.466 12.919l-4.334 8.423 7.416.695c4.079.382 7.54.541 7.691.352.373-.466 3.587-25.178 3.303-25.4-.124-.097-1.858-.471-3.852-.831-3.615-.653-3.629-.641-4.758 3.842m22.596 12.033C298.57 96.004 296 103.42 296 103.967c0 2.099 5.054 2.328 7.305.33 5.839-5.181 24.898-18.288 24.212-16.651-2.738 6.539-9.517 24.716-9.517 25.521 0 .535.97.828 2.155.653 1.79-.266 3.137-2.942 7.96-15.82 6.819-18.208 6.512-16.626 3.377-17.413-2.074-.52-4.772 1.034-15.581 8.978-7.189 5.284-13.199 9.456-13.354 9.271-.154-.185 1.852-5.961 4.459-12.836 4.6-12.127 4.787-13.935 1.446-13.985-.571-.008-3.608 6.954-6.75 15.471M200.167 75.118c-5.167 1.636-6.209 2.317-5.658 3.694.371.928 2.743 8.326 5.271 16.438 4.183 13.42 4.805 14.75 6.908 14.75 2.81 0 2.819-.214.312-7.5-1.1-3.197-2-5.95-2-6.116 0-.167 1.767-.833 3.926-1.48 8.57-2.568 12.165-9.22 8.879-16.432-2.516-5.522-7.687-6.506-17.638-3.354m1.49 3.589c-1.15.297-1.662 1.099-1.361 2.134.265.913 1.082 3.82 1.814 6.462 1.224 4.408 1.541 4.753 3.862 4.205 6.331-1.498 9.57-6.758 7.054-11.459-1.089-2.035-6.297-2.65-11.369-1.342m139.099 9.119c-.355 1.357.642 2.419 3.883 4.139 2.399 1.272 4.358 2.588 4.355 2.924-.004.336-3.544 6.236-7.867 13.111-7.585 12.063-8.519 15.008-4.755 14.996.621-.002 4.713-5.792 9.095-12.867l7.966-12.863 4.511 2.808c3.253 2.024 4.722 2.475 5.268 1.617 1.45-2.28 1.795-1.981-13.282-11.53-7.362-4.663-8.49-4.95-9.174-2.335M158.187 95.44c-3.86 2.729-8.356 8.477-7.595 9.709.96 1.554 4.264.88 4.858-.991 1.878-5.918 10.322-8.962 13.099-4.723 2.621 4 .662 7.074-8.442 13.25-.215.147.161.933.838 1.748 1.07 1.29 1.74 1.16 5.171-1.006 6.657-4.202 10.311-4.203 12.607-.003 2.416 4.421-5.08 12.576-11.561 12.576-2.341 0-2.635.704-1.225 2.932 2.939 4.645 18.087-6.698 18.03-13.502-.048-5.662-3.038-8.921-8.064-8.789-3.746.099-5.014-.837-2.903-2.141 1.92-1.187 1.061-6.53-1.455-9.045-3.226-3.227-8.806-3.233-13.358-.015M368 108.276c-1.375 1.741-6.445 7.572-11.267 12.959l-8.768 9.793 5.268 4.583c2.897 2.52 7.395 6.624 9.996 9.12 6.114 5.867 9.042 5.591 22.695-2.139 5.432-3.076 10.259-5.582 10.726-5.571 1.511.038 6.685 8.152 5.633 8.833-3.978 2.577-23.283 17.69-23.283 18.228 0 4.527 14.091-3.708 29.386-17.174.693-.61-9.662-15.908-10.767-15.908-.148 0-5.022 2.648-10.83 5.885-13.737 7.654-17.472 8.93-19.204 6.562-.705-.964-1.795-1.435-2.422-1.048-.703.435-.939.181-.616-.661.31-.808-1.532-3.098-4.512-5.611-6.001-5.061-5.949-4.7-1.452-9.952l3.582-4.186 5.15 4.506c5.642 4.935 6.457 5.262 7.345 2.949.398-1.037-1.115-3.119-4.54-6.25l-5.137-4.694 3.49-3.715 3.49-3.715 5.67 4.961c4.485 3.925 5.959 4.722 7.052 3.815 1.874-1.555 1.78-1.689-6.146-8.694-8.073-7.134-7.335-6.933-10.539-2.876m-233.5 6.886c-9.047 4.982-12.021 13.717-7.387 21.699 2.105 3.627 1.85 5.957-.925 8.469-1.636 1.48-2.153 1.245-7.225-3.278-4.008-3.575-5.796-4.597-6.713-3.84-2.054 1.697-1.5 2.76 3.978 7.635 2.876 2.559 8.546 7.708 12.601 11.442 7.567 6.967 9.233 7.406 10.45 2.753.366-1.399.09-1.737-1.056-1.297-1.035.397-1.305.197-.813-.6.406-.657.33-1.071-.169-.92-2.124.643-9.32-7.209-8.32-9.077 2.113-3.949 3.442-4.199 8.555-1.61 5.805 2.939 7.708 3.016 13.178.532 4.607-2.092 9.346-8.857 9.346-13.343 0-11.318-16.648-23.439-25.5-18.565m1.918 3.816c-2.867 1.147-7.418 6.754-7.418 9.139 0 6.495 8.285 14.823 15.563 15.643 8.649.975 13.364-8.288 8.35-16.401-3.313-5.361-12.445-10.001-16.495-8.381M251.5 138.36c-3.3 2.342-13.65 9.443-23 15.779a45304.059 45304.059 0 0 0-63.25 42.934l-9.25 6.3v11.678l13.25-9.105c7.287-5.008 25.625-17.586 40.75-27.952 15.125-10.365 32.121-22.074 37.77-26.019 6.278-4.386 10.863-6.946 11.797-6.588.84.323 13.544 8.846 28.23 18.941 39.75 27.323 42.4 29.139 58.953 40.406l15.25 10.38v-11.743l-30.75-20.752a20575.189 20575.189 0 0 1-51.229-34.685c-11.264-7.664-20.939-13.911-21.5-13.883-.562.028-3.721 1.967-7.021 4.309m0 19.006c-7.947 5.59-27.255 18.907-36 24.83-3.85 2.608-9.475 6.463-12.5 8.566-13.586 9.448-25.919 17.901-30.75 21.075l-5.25 3.45V315h4.839l.33-23.25c.303-21.272.509-23.59 2.421-27.25 2.485-4.755 8.438-9.089 13.622-9.918l3.736-.597-3.084-4.375c-7.589-10.767-3.535-25.201 8.636-30.744 19.125-8.711 37.238 15.834 23.354 31.647-1.908 2.174-2.551 3.515-1.708 3.561 5.902.324 10.717 2.739 14.514 7.28 1.562 1.868 3.965 3.73 5.34 4.137 10.423 3.089 15.49 15.929 9.974 25.277-1.13 1.916-1.823 3.717-1.538 4.001.284.285.805-.234 1.158-1.152.822-2.143 8.424-6.617 11.244-6.617 2.772 0 2.753-.102-.978-5.396-6.045-8.576-4.93-19.519 2.705-26.557 7.794-7.184 16.735-7.726 25.815-1.564 1.99 1.35 4.181 2.282 4.869 2.07.688-.212 2.475-.654 3.972-.981l2.721-.596-3.221-4.569c-9.075-12.876.421-32.37 15.779-32.392 18.347-.025 28.188 22.297 15.447 35.038-1.189 1.189-1.461 1.949-.697 1.953 3.476.015 9.197 2.447 12.426 5.283 5.985 5.255 6.324 7.005 6.324 32.679V315h6v-98.977l-5.935-4.262c-3.264-2.343-14.513-10.111-24.999-17.261-10.486-7.15-28.36-19.412-39.72-27.25-11.359-7.838-21.147-14.217-21.75-14.177-.603.039-3.796 1.971-7.096 4.293m-150.113 2.54c-9.056 5.522-9.678 19.985-1.138 26.453 11.553 8.749 24.626 5.639 28.744-6.838 4.422-13.398-15.079-27.254-27.606-19.615m298.363 5.653c-8.113 4.1-14.727 7.789-14.7 8.198.028.408 1.951 4.467 4.274 9.019 3.759 7.364 4.411 8.135 5.92 7 1.571-1.181 1.477-1.723-1.251-7.276-3.704-7.537-3.857-6.768 1.949-9.78 5.577-2.894 5.385-2.997 9.276 4.98 2.174 4.458 2.766 5.029 4.144 4 1.451-1.083 1.326-1.787-1.281-7.2l-2.89-6 4.502-2.319c2.477-1.275 4.616-2.175 4.755-2 .139.176 1.726 3.118 3.526 6.538 2.694 5.121 3.57 6.06 4.957 5.318 1.512-.809 1.271-1.781-2.352-9.469-2.22-4.713-4.496-8.544-5.058-8.515-.562.029-7.658 3.406-15.771 7.506m-295.329-2.179C101.03 164.9 98 170.173 98 174.556c0 5.12 10.25 12.444 17.416 12.444 6.983 0 12.237-9.193 8.913-15.598-3.295-6.35-14.007-10.666-19.908-8.022M412 190.433c-13.105 3.549-15.546 4.51-15.798 6.22-.436 2.951.811 3.606 17.03 8.939 8.102 2.664 14.402 5.134 14 5.488-.403.355-3.882 1.408-7.732 2.342-14.827 3.595-17.5 4.61-17.5 6.649 0 2.556.038 2.551 18.5-2.457 13.952-3.785 15.957-4.582 15.666-6.227-.519-2.937-.838-3.095-17.609-8.697l-15.816-5.284 13.63-3.41c12.55-3.141 13.629-3.592 13.629-5.703 0-2.84.688-2.921-18 2.14m25.522.542c-2.236 2.471-1.641 10.131 1.015 13.066 2.47 2.729 7.469 2.699 6.753-.041-.288-1.1-1.355-2-2.371-2-1.017 0-2.353-.942-2.969-2.093-1.221-2.283-.506-6.907 1.069-6.907.54 0 .981-.9.981-2 0-2.555-2.177-2.567-4.478-.025M84.973 195.25c-2.529 5.573-2.521 12.34.022 16.509 5.506 9.031 22.322 11.854 28.9 4.852 4.697-4.999 6.768-16.943 3.105-17.901-1.709-.447-2-.03-2 2.863 0 9.424-6.02 15.264-14.314 13.886-11.546-1.918-16.238-9.274-11.789-18.483 1.624-3.36 1.819-4.538.854-5.151-2.174-1.38-2.801-.931-4.778 3.425M199.5 224.9c-12.787 5.636-8.801 26.1 5.084 26.1 17.678 0 19.295-25.357 1.699-26.635-2.631-.191-5.683.05-6.783.535m106.855.092c-7.772 3.137-9.857 15.967-3.61 22.215 4.233 4.233 11.524 5.026 16.715 1.818 14.296-8.836 2.562-30.354-13.105-24.033m-37.371 32.871c-8.873 4.744-9.734 18.038-1.498 23.128 4.407 2.724 11.748 2.691 15.625-.07 13.792-9.821.795-31.036-14.127-23.058m-83.863 4.847c-5.536 2.727-6.121 5.52-6.121 29.208V312.9l14.898.3 14.899.3.442-4.622c.564-5.885 3.651-10.217 8.729-12.248l3.993-1.598-2.571-3.766c-5.006-7.335-2.405-18.772 5.405-23.766 3.903-2.495 3.932-3.073.255-4.974-4.444-2.298-35.179-2.156-39.929.184m109.663-1.161c-.302.302-.137 2.385.367 4.628 1.178 5.243-1.086 13.474-4.62 16.794-3.402 3.196-3.228 3.662 1.665 4.444 8.225 1.316 12.804 8.543 12.804 20.21V313h33.698l-.314-22.215c-.433-30.544.262-29.748-25.967-29.77-9.396-.008-17.331.232-17.633.534M229 272.738c-5.185 2.61-7.046 8.45-4.412 13.846 4.196 8.595 16.19 7.897 19.309-1.124 3.175-9.184-6.132-17.133-14.897-12.722M99.068 289.935c-15.473 6.677-16.722 7.483-15.233 9.831.609.96 3.321.155 11.234-3.334 5.737-2.53 11.556-5.035 12.931-5.567 1.52-.588-1.732 3.292-8.292 9.893-15.173 15.267-15.851 14.734 16.292 12.805 3.575-.214 6.05-.193 5.5.047-.55.241-6.592 2.789-13.427 5.664-12.575 5.288-13.743 6.116-12.162 8.614.703 1.113 28.313-9.359 32.913-12.482.178-.121-.389-1.599-1.261-3.283l-1.583-3.063-14.74.587-14.74.587 10.312-10.446c9.234-9.355 10.242-10.726 9.639-13.127-.978-3.896-.607-3.966-17.383 3.274m304.428-3.776c-.558 2.223-.041 3.231 3.156 6.161 6.422 5.885 7.457 2.69 1.4-4.32l-3.889-4.499-.667 2.658m-2.801 7.899c-.488 1.867 5.326 8.826 7.448 8.915 2.059.087 1.185-3.155-1.83-6.784-3.924-4.725-4.848-5.075-5.618-2.131m-142.23-.106c-4.183 1.695-4.861 3.683-2.425 7.104 1.224 1.72 2.45 5.111 2.723 7.535l.497 4.409H298v-6.05c0-7.394-1.894-11.369-6.119-12.842-3.66-1.275-30.346-1.401-33.416-.156m-40.392 10.683c-1.14 1.449-2.073 3.904-2.073 5.456v2.822l18.001.293 18.001.294-.001-3.677c-.002-6.621-2.853-7.823-18.563-7.823-13.169 0-13.312.024-15.365 2.635m177.634 3.317c-6.171 5.418-6.87 13.601-1.595 18.656 6.992 6.698 17.884.519 18.191-10.321l.1-3.515 3.298 3.599c3.28 3.579 4.471 9.328 2.534 12.229-1.418 2.123-4.715 3.271-6.511 2.266-2.69-1.506-2.028.469 1.192 3.553l2.915 2.793 2.606-3.938c7.027-10.617 4.855-20.458-5.671-25.703-7.189-3.583-12.684-3.46-17.059.381m.874 3.163c-3.985 3.135-3.347 8.47 1.394 11.655 5.554 3.73 10.599 1.633 11.65-4.845 1.164-7.174-7.097-11.488-13.044-6.81M119.5 323.921c-15.316 7.185-16.497 23.935-2.211 31.349 6.615 3.433 17.859-.919 22.728-8.797 8.6-13.915-5.617-29.543-20.517-22.552m39.5 3.084v5.005l99.725-.255 99.725-.255.232-4.75.232-4.75H159v5.005m-36.5.881c-11.46 5.276-14.322 14.034-6.981 21.364 8.873 8.861 28.368-7.007 21.193-17.251-3.997-5.706-8.146-6.907-14.212-4.113m258.541 2.733c-6.018 5.063-7.866 12.556-4.041 16.381 2.124 2.124 5.956 2.644 7.573 1.027.63-.63.972.406.972 2.944 0 8.026 7.481 11.532 14.465 6.779 11.498-7.825 10.472-22.853-1.468-21.508-4.402.497-4.542.429-4.542-2.21 0-6.071-7.464-8.037-12.959-3.413m.748 2.744C376.88 337.093 378.316 344 384 344c3.4 0 6-3.114 6-7.187 0-4.185-4.664-6.144-8.211-3.45m10.134 9.56c-3.567 3.568-3.705 6.386-.468 9.622 3.34 3.341 7.763 3.265 10.472-.18 6.116-7.774-3.035-16.411-10.004-9.442M139.12 357.129c-15.101 7.411-16.254 8.165-14.761 9.659 1.494 1.494 1.975 1.448 6.158-.584 6.066-2.947 6.401-2.882 11.404 2.216l4.338 4.419-1.832 5.093c-1.701 4.732-1.714 5.209-.181 6.742 1.962 1.963 1.204 3.388 9.665-18.174 8.209-20.921 8.442-20.773-14.791-9.371m8.035.674-6.344 3.407 3.291 3.395c1.81 1.867 3.576 3.395 3.926 3.395.601 0 6.2-13.233 5.705-13.485-.128-.066-3.088 1.414-6.578 3.288m18.03 3.947c-.733 12.246-2.455 24.801-3.492 25.461-2.245 1.427-6.315.79-8.61-1.349-1.874-1.745-2.456-1.883-3.174-.75-1.549 2.448-.984 3.871 2.341 5.899 5.948 3.627 8.34 2.788 27.473-9.634 10.548-6.849 11.362-7.594 9.662-8.837-2.224-1.627-2.844-1.345-13.635 6.205-8.905 6.23-8.387 6.889-6.672-8.491.984-8.829.925-9.779-.691-10.96-2.62-1.916-2.956-1.658-3.202 2.456m179.482-.083c-1.163 1.163-.819 1.805 6.833 12.735 4.125 5.892 7.5 10.884 7.5 11.094 0 .211-6.034-2.74-13.408-6.557-14.2-7.349-15.636-7.796-17.564-5.473-1.246 1.502 15.986 28.372 18.797 29.309 3.532 1.177 1.675-3.587-5.367-13.772l-7.702-11.139 14.235 7.132c20.737 10.388 21.961 8.955 8.808-10.309-8.73-12.785-10.485-14.668-12.132-13.02m16.788 3.788c-2.847 2.846-3.032 4.528-.945 8.565 2.77 5.357 8.602 6.619 12.316 2.666 6.791-7.229-4.36-18.243-11.371-11.231m2.795 1.196c-1.92.792-1.483 5.828.676 7.782 4.254 3.85 8.884-.53 5.44-5.147-2.105-2.822-3.846-3.572-6.116-2.635m9 13.62c-7.57 5.536-5.171 8.372 2.538 2.999 4.044-2.818 4.935-3.899 4.072-4.939-1.452-1.749-1.644-1.692-6.61 1.94m-62.195.674c-1.232.779-.955 2.978 1.87 14.886 1.823 7.685 3.056 14.39 2.741 14.9-.619 1.002-11.438 3.858-12.045 3.18-.203-.226-1.913-6.711-3.801-14.411-3.035-12.381-3.686-14.037-5.626-14.32-1.329-.193-2.194.211-2.194 1.026 0 1.201 5.334 23.929 6.541 27.869.368 1.201-.728 1.855-4.605 2.75-8.889 2.052-8.222 2.797-11.936-13.325-2.753-11.95-3.652-14.5-5.111-14.5-.974 0-2.036.43-2.361.955-.47.761 6.94 32.846 7.78 33.686.235.235 38.923-8.835 39.548-9.271.196-.136-1.057-6.238-2.784-13.559-5.337-22.633-4.993-21.779-8.017-19.866m-110.997 4.891c-4.343 3.745-4.388 3.845-2.01 4.466 1.917.502 3.217-.131 6.15-2.995 6.344-6.195 2.799-7.454-4.14-1.471m7.191 2.467c-3.774 3.712-3.929 4.286-1.338 4.964 1.773.463 9.089-5.621 9.089-7.559 0-1.876-4.859-.249-7.751 2.595m14.96-.311c-8.956 4.064-12.57 21.847-5.863 28.847C221.182 421.887 235 424.229 235 420c0-1.654-.667-2-3.851-2-9.653 0-13.765-4.564-12.951-14.375.889-10.718 7.902-15.67 16.842-11.892 4.32 1.824 5.029 1.889 6.134.557 3.779-4.553-11.016-7.906-18.965-4.298m26.09 2.911c-11.842 7.43-8.728 29.875 4.587 33.07 14.42 3.459 25.056-11.44 18.743-26.255-3.455-8.108-15.612-11.659-23.33-6.815m2.818 3.728c-4.765 3.337-6.538 12.723-3.691 19.538 3.292 7.878 15.121 8.475 19.008.959 3.292-6.367 1.338-18.574-3.379-21.098-2.909-1.557-9.318-1.235-11.938.601" fill-rule="evenodd"/>
</svg>