<svg width="237" height="65" viewBox="0 0 237 65" fill="none" xmlns="http://www.w3.org/2000/svg">
<path d="M83.992 42V25.2H92.2C94.312 25.2 95.896 25.6 96.952 26.4C98.024 27.2 98.56 28.256 98.56 29.568C98.56 30.448 98.344 31.216 97.912 31.872C97.48 32.512 96.888 33.008 96.136 33.36C95.384 33.712 94.52 33.888 93.544 33.888L94 32.904C95.056 32.904 95.992 33.08 96.808 33.432C97.624 33.768 98.256 34.272 98.704 34.944C99.168 35.616 99.4 36.44 99.4 37.416C99.4 38.856 98.832 39.984 97.696 40.8C96.56 41.6 94.888 42 92.68 42H83.992ZM87.856 39.072H92.392C93.4 39.072 94.16 38.912 94.672 38.592C95.2 38.256 95.464 37.728 95.464 37.008C95.464 36.304 95.2 35.784 94.672 35.448C94.16 35.096 93.4 34.92 92.392 34.92H87.568V32.088H91.72C92.664 32.088 93.384 31.928 93.88 31.608C94.392 31.272 94.648 30.768 94.648 30.096C94.648 29.44 94.392 28.952 93.88 28.632C93.384 28.296 92.664 28.128 91.72 28.128H87.856V39.072ZM108.324 42.192C106.948 42.192 105.724 41.904 104.652 41.328C103.596 40.752 102.756 39.968 102.132 38.976C101.524 37.968 101.22 36.824 101.22 35.544C101.22 34.248 101.524 33.104 102.132 32.112C102.756 31.104 103.596 30.32 104.652 29.76C105.724 29.184 106.948 28.896 108.324 28.896C109.684 28.896 110.9 29.184 111.972 29.76C113.044 30.32 113.884 31.096 114.492 32.088C115.1 33.08 115.404 34.232 115.404 35.544C115.404 36.824 115.1 37.968 114.492 38.976C113.884 39.968 113.044 40.752 111.972 41.328C110.9 41.904 109.684 42.192 108.324 42.192ZM108.324 39.12C108.948 39.12 109.508 38.976 110.004 38.688C110.5 38.4 110.892 37.992 111.18 37.464C111.468 36.92 111.612 36.28 111.612 35.544C111.612 34.792 111.468 34.152 111.18 33.624C110.892 33.096 110.5 32.688 110.004 32.4C109.508 32.112 108.948 31.968 108.324 31.968C107.7 31.968 107.14 32.112 106.644 32.4C106.148 32.688 105.748 33.096 105.444 33.624C105.156 34.152 105.012 34.792 105.012 35.544C105.012 36.28 105.156 36.92 105.444 37.464C105.748 37.992 106.148 38.4 106.644 38.688C107.14 38.976 107.7 39.12 108.324 39.12ZM124.15 42.192C122.774 42.192 121.55 41.904 120.478 41.328C119.422 40.752 118.582 39.968 117.958 38.976C117.35 37.968 117.046 36.824 117.046 35.544C117.046 34.248 117.35 33.104 117.958 32.112C118.582 31.104 119.422 30.32 120.478 29.76C121.55 29.184 122.774 28.896 124.15 28.896C125.51 28.896 126.726 29.184 127.798 29.76C128.87 30.32 129.71 31.096 130.318 32.088C130.926 33.08 131.23 34.232 131.23 35.544C131.23 36.824 130.926 37.968 130.318 38.976C129.71 39.968 128.87 40.752 127.798 41.328C126.726 41.904 125.51 42.192 124.15 42.192ZM124.15 39.12C124.774 39.12 125.334 38.976 125.83 38.688C126.326 38.4 126.718 37.992 127.006 37.464C127.294 36.92 127.438 36.28 127.438 35.544C127.438 34.792 127.294 34.152 127.006 33.624C126.718 33.096 126.326 32.688 125.83 32.4C125.334 32.112 124.774 31.968 124.15 31.968C123.526 31.968 122.966 32.112 122.47 32.4C121.974 32.688 121.574 33.096 121.27 33.624C120.982 34.152 120.838 34.792 120.838 35.544C120.838 36.28 120.982 36.92 121.27 37.464C121.574 37.992 121.974 38.4 122.47 38.688C122.966 38.976 123.526 39.12 124.15 39.12ZM136.929 39.36L137.025 34.8L143.049 29.088H147.513L141.729 34.968L139.785 36.552L136.929 39.36ZM133.833 42V24.192H137.577V42H133.833ZM143.457 42L139.089 36.576L141.441 33.672L147.993 42H143.457ZM155.56 42.288C154.216 42.288 152.928 42.112 151.696 41.76C150.464 41.392 149.472 40.92 148.72 40.344L150.04 37.416C150.76 37.928 151.608 38.352 152.584 38.688C153.576 39.008 154.576 39.168 155.584 39.168C156.352 39.168 156.968 39.096 157.432 38.952C157.912 38.792 158.264 38.576 158.488 38.304C158.712 38.032 158.824 37.72 158.824 37.368C158.824 36.92 158.648 36.568 158.296 36.312C157.944 36.04 157.48 35.824 156.904 35.664C156.328 35.488 155.688 35.328 154.984 35.184C154.296 35.024 153.6 34.832 152.896 34.608C152.208 34.384 151.576 34.096 151 33.744C150.424 33.392 149.952 32.928 149.584 32.352C149.232 31.776 149.056 31.04 149.056 30.144C149.056 29.184 149.312 28.312 149.824 27.528C150.352 26.728 151.136 26.096 152.176 25.632C153.232 25.152 154.552 24.912 156.136 24.912C157.192 24.912 158.232 25.04 159.256 25.296C160.28 25.536 161.184 25.904 161.968 26.4L160.768 29.352C159.984 28.904 159.2 28.576 158.416 28.368C157.632 28.144 156.864 28.032 156.112 28.032C155.36 28.032 154.744 28.12 154.264 28.296C153.784 28.472 153.44 28.704 153.232 28.992C153.024 29.264 152.92 29.584 152.92 29.952C152.92 30.384 153.096 30.736 153.448 31.008C153.8 31.264 154.264 31.472 154.84 31.632C155.416 31.792 156.048 31.952 156.736 32.112C157.44 32.272 158.136 32.456 158.824 32.664C159.528 32.872 160.168 33.152 160.744 33.504C161.32 33.856 161.784 34.32 162.136 34.896C162.504 35.472 162.688 36.2 162.688 37.08C162.688 38.024 162.424 38.888 161.896 39.672C161.368 40.456 160.576 41.088 159.52 41.568C158.48 42.048 157.16 42.288 155.56 42.288ZM171.421 42.192C170.029 42.192 168.789 41.912 167.701 41.352C166.613 40.776 165.757 39.984 165.133 38.976C164.525 37.968 164.221 36.824 164.221 35.544C164.221 34.248 164.525 33.104 165.133 32.112C165.757 31.104 166.613 30.32 167.701 29.76C168.789 29.184 170.029 28.896 171.421 28.896C172.781 28.896 173.965 29.184 174.973 29.76C175.981 30.32 176.725 31.128 177.205 32.184L174.301 33.744C173.965 33.136 173.541 32.688 173.029 32.4C172.533 32.112 171.989 31.968 171.397 31.968C170.757 31.968 170.181 32.112 169.669 32.4C169.157 32.688 168.749 33.096 168.445 33.624C168.157 34.152 168.013 34.792 168.013 35.544C168.013 36.296 168.157 36.936 168.445 37.464C168.749 37.992 169.157 38.4 169.669 38.688C170.181 38.976 170.757 39.12 171.397 39.12C171.989 39.12 172.533 38.984 173.029 38.712C173.541 38.424 173.965 37.968 174.301 37.344L177.205 38.928C176.725 39.968 175.981 40.776 174.973 41.352C173.965 41.912 172.781 42.192 171.421 42.192ZM187.238 28.896C188.262 28.896 189.174 29.104 189.974 29.52C190.79 29.92 191.43 30.544 191.894 31.392C192.358 32.224 192.59 33.296 192.59 34.608V42H188.846V35.184C188.846 34.144 188.614 33.376 188.15 32.88C187.702 32.384 187.062 32.136 186.23 32.136C185.638 32.136 185.102 32.264 184.622 32.52C184.158 32.76 183.79 33.136 183.518 33.648C183.262 34.16 183.134 34.816 183.134 35.616V42H179.39V24.192H183.134V32.664L182.294 31.584C182.758 30.72 183.422 30.056 184.286 29.592C185.15 29.128 186.134 28.896 187.238 28.896ZM202.322 42.192C200.946 42.192 199.722 41.904 198.65 41.328C197.594 40.752 196.754 39.968 196.13 38.976C195.522 37.968 195.218 36.824 195.218 35.544C195.218 34.248 195.522 33.104 196.13 32.112C196.754 31.104 197.594 30.32 198.65 29.76C199.722 29.184 200.946 28.896 202.322 28.896C203.682 28.896 204.898 29.184 205.97 29.76C207.042 30.32 207.882 31.096 208.49 32.088C209.098 33.08 209.402 34.232 209.402 35.544C209.402 36.824 209.098 37.968 208.49 38.976C207.882 39.968 207.042 40.752 205.97 41.328C204.898 41.904 203.682 42.192 202.322 42.192ZM202.322 39.12C202.946 39.12 203.506 38.976 204.002 38.688C204.498 38.4 204.89 37.992 205.178 37.464C205.466 36.92 205.61 36.28 205.61 35.544C205.61 34.792 205.466 34.152 205.178 33.624C204.89 33.096 204.498 32.688 204.002 32.4C203.506 32.112 202.946 31.968 202.322 31.968C201.698 31.968 201.138 32.112 200.642 32.4C200.146 32.688 199.746 33.096 199.442 33.624C199.154 34.152 199.01 34.792 199.01 35.544C199.01 36.28 199.154 36.92 199.442 37.464C199.746 37.992 200.146 38.4 200.642 38.688C201.138 38.976 201.698 39.12 202.322 39.12ZM218.149 42.192C216.773 42.192 215.549 41.904 214.477 41.328C213.421 40.752 212.581 39.968 211.957 38.976C211.349 37.968 211.045 36.824 211.045 35.544C211.045 34.248 211.349 33.104 211.957 32.112C212.581 31.104 213.421 30.32 214.477 29.76C215.549 29.184 216.773 28.896 218.149 28.896C219.509 28.896 220.725 29.184 221.797 29.76C222.869 30.32 223.709 31.096 224.317 32.088C224.925 33.08 225.229 34.232 225.229 35.544C225.229 36.824 224.925 37.968 224.317 38.976C223.709 39.968 222.869 40.752 221.797 41.328C220.725 41.904 219.509 42.192 218.149 42.192ZM218.149 39.12C218.773 39.12 219.333 38.976 219.829 38.688C220.325 38.4 220.717 37.992 221.005 37.464C221.293 36.92 221.437 36.28 221.437 35.544C221.437 34.792 221.293 34.152 221.005 33.624C220.717 33.096 220.325 32.688 219.829 32.4C219.333 32.112 218.773 31.968 218.149 31.968C217.525 31.968 216.965 32.112 216.469 32.4C215.973 32.688 215.573 33.096 215.269 33.624C214.981 34.152 214.837 34.792 214.837 35.544C214.837 36.28 214.981 36.92 215.269 37.464C215.573 37.992 215.973 38.4 216.469 38.688C216.965 38.976 217.525 39.12 218.149 39.12ZM227.831 42V24.192H231.575V42H227.831Z" fill="#252B42"/>
<path d="M64.3511 24.6997L52.8257 27.7472L48.6347 42.4177L40.9512 47.4496L53.2448 44.1186L64.3511 24.6997Z" fill="#127FC5"/>
<path d="M0.650898 24.6997L12.1762 27.7472L16.3672 42.4177L24.0508 47.4496L11.7571 44.1186L0.650898 24.6997Z" fill="#96BB7C"/>
<circle cx="32.1773" cy="8.77496" r="8.77496" fill="#061625"/>
<path d="M8.45117 9.1001L31.2011 22.091V49.3999L17.2507 41.9266L8.45117 9.1001Z" fill="#EF3B3F"/>
<path d="M56.5508 9.1001L33.8009 22.091V49.3999L47.7513 41.9266L56.5508 9.1001Z" fill="#FCAB27"/>
<path fill-rule="evenodd" clip-rule="evenodd" d="M65.0001 64.8372C57.2664 60.1482 45.6375 57.1653 32.6335 57.1653C19.479 57.1653 7.73166 60.2176 0 65.0007C5.90815 57.2995 18.2701 51.9995 32.5634 51.9995C46.7553 51.9995 59.0432 57.2246 65.0001 64.8372Z" fill="#0A1526"/>
</svg>
